# xmcd
# 
# Track frame offsets:
#     150
#     20382
#     36525
#     55472
#     71835
#     93152
#     112977
#     129752
#     149535
# 
# Disc length: 2422
# 
# Revision: 1
# Processed by: cddbd v1.5.2PL0 Copyright (c) Steve Scherf et al.
# Submitted via: BonkEnc v1.0.5
# 
DISCID=7d097409
DTITLE=Nick Kamen - US
DYEAR=1988
DGENRE=Pop
TTITLE0=Bring Me Your Love
TTITLE1=Turn It Up
TTITLE2=Guilty
TTITLE3=This Is Really Love
TTITLE4=Count On me
TTITLE5=Tell Me
TTITLE6=I Can't Live Without Your Love
TTITLE7=Wonders Of You
TTITLE8=Steal Love
EXTD=
EXTT0=
EXTT1=
EXTT2=
EXTT3=
EXTT4=
EXTT5=
EXTT6=
EXTT7=
EXTT8=
PLAYORDER=
